<svg width="1920" height="1464" viewBox="0 0 1920 1464" fill="none" xmlns="http://www.w3.org/2000/svg">
<g filter="url(#filter0_i_343:7)">
<path d="M0 39.5005C572.784 -118.461 1014.66 271.444 1926 39.5005V1400.17C1061.81 1599.12 699.178 1253.21 0 1400.17V39.5005Z" fill="#262261"/>
<mask id="mask0_343:7" style="mask-type:alpha" maskUnits="userSpaceOnUse" x="0" y="0" width="1920" height="1464">
<path d="M0 39.6183C571 -118.343 1011.5 271.562 1920 39.6183V1400.29C1058.5 1599.24 697 1253.32 0 1400.29V39.6183Z" fill="#262261"/>
</mask>
<g mask="url(#mask0_343:7)">
<path d="M1951.5 1363.63C2023.57 1363.63 2082 1305.2 2082 1233.13C2082 1161.06 2023.57 1102.63 1951.5 1102.63C1879.43 1102.63 1821 1161.06 1821 1233.13C1821 1305.2 1879.43 1363.63 1951.5 1363.63Z" fill="#B4BDDD" fill-opacity="0.07"/>
<path d="M1307.25 626.128C1313.46 626.128 1318.5 621.091 1318.5 614.878C1318.5 608.665 1313.46 603.628 1307.25 603.628C1301.04 603.628 1296 608.665 1296 614.878C1296 621.091 1301.04 626.128 1307.25 626.128Z" fill="#B4BDDD" fill-opacity="0.07"/>
<path d="M1374.75 626.128C1380.96 626.128 1386 621.091 1386 614.878C1386 608.665 1380.96 603.628 1374.75 603.628C1368.54 603.628 1363.5 608.665 1363.5 614.878C1363.5 621.091 1368.54 626.128 1374.75 626.128Z" fill="#B4BDDD" fill-opacity="0.07"/>
<path d="M1442.25 626.128C1448.46 626.128 1453.5 621.091 1453.5 614.878C1453.5 608.665 1448.46 603.628 1442.25 603.628C1436.04 603.628 1431 608.665 1431 614.878C1431 621.091 1436.04 626.128 1442.25 626.128Z" fill="#B4BDDD" fill-opacity="0.07"/>
<path d="M1509.75 626.128C1515.96 626.128 1521 621.091 1521 614.878C1521 608.665 1515.96 603.628 1509.75 603.628C1503.54 603.628 1498.5 608.665 1498.5 614.878C1498.5 621.091 1503.54 626.128 1509.75 626.128Z" fill="#B4BDDD" fill-opacity="0.07"/>
<path d="M1577.25 626.128C1583.46 626.128 1588.5 621.091 1588.5 614.878C1588.5 608.665 1583.46 603.628 1577.25 603.628C1571.04 603.628 1566 608.665 1566 614.878C1566 621.091 1571.04 626.128 1577.25 626.128Z" fill="#B4BDDD" fill-opacity="0.07"/>
<path d="M1644.75 626.128C1650.96 626.128 1656 621.091 1656 614.878C1656 608.665 1650.96 603.628 1644.75 603.628C1638.54 603.628 1633.5 608.665 1633.5 614.878C1633.5 621.091 1638.54 626.128 1644.75 626.128Z" fill="#B4BDDD" fill-opacity="0.07"/>
<path d="M1307.25 678.628C1313.46 678.628 1318.5 673.591 1318.5 667.378C1318.5 661.165 1313.46 656.128 1307.25 656.128C1301.04 656.128 1296 661.165 1296 667.378C1296 673.591 1301.04 678.628 1307.25 678.628Z" fill="#B4BDDD" fill-opacity="0.07"/>
<path d="M1374.75 678.628C1380.96 678.628 1386 673.591 1386 667.378C1386 661.165 1380.96 656.128 1374.75 656.128C1368.54 656.128 1363.5 661.165 1363.5 667.378C1363.5 673.591 1368.54 678.628 1374.75 678.628Z" fill="#B4BDDD" fill-opacity="0.07"/>
<path d="M1442.25 678.628C1448.46 678.628 1453.5 673.591 1453.5 667.378C1453.5 661.165 1448.46 656.128 1442.25 656.128C1436.04 656.128 1431 661.165 1431 667.378C1431 673.591 1436.04 678.628 1442.25 678.628Z" fill="#B4BDDD" fill-opacity="0.07"/>
<path d="M1509.75 678.628C1515.96 678.628 1521 673.591 1521 667.378C1521 661.165 1515.96 656.128 1509.75 656.128C1503.54 656.128 1498.5 661.165 1498.5 667.378C1498.5 673.591 1503.54 678.628 1509.75 678.628Z" fill="#B4BDDD" fill-opacity="0.07"/>
<path d="M1577.25 678.628C1583.46 678.628 1588.5 673.591 1588.5 667.378C1588.5 661.165 1583.46 656.128 1577.25 656.128C1571.04 656.128 1566 661.165 1566 667.378C1566 673.591 1571.04 678.628 1577.25 678.628Z" fill="#B4BDDD" fill-opacity="0.07"/>
<path d="M1644.75 678.628C1650.96 678.628 1656 673.591 1656 667.378C1656 661.165 1650.96 656.128 1644.75 656.128C1638.54 656.128 1633.5 661.165 1633.5 667.378C1633.5 673.591 1638.54 678.628 1644.75 678.628Z" fill="#B4BDDD" fill-opacity="0.07"/>
<path d="M1307.25 731.128C1313.46 731.128 1318.5 726.091 1318.5 719.878C1318.5 713.665 1313.46 708.628 1307.25 708.628C1301.04 708.628 1296 713.665 1296 719.878C1296 726.091 1301.04 731.128 1307.25 731.128Z" fill="#B4BDDD" fill-opacity="0.07"/>
<path d="M1374.75 731.128C1380.96 731.128 1386 726.091 1386 719.878C1386 713.665 1380.96 708.628 1374.75 708.628C1368.54 708.628 1363.5 713.665 1363.5 719.878C1363.5 726.091 1368.54 731.128 1374.75 731.128Z" fill="#B4BDDD" fill-opacity="0.07"/>
<path d="M1442.25 731.128C1448.46 731.128 1453.5 726.091 1453.5 719.878C1453.5 713.665 1448.46 708.628 1442.25 708.628C1436.04 708.628 1431 713.665 1431 719.878C1431 726.091 1436.04 731.128 1442.25 731.128Z" fill="#B4BDDD" fill-opacity="0.07"/>
<path d="M1509.75 731.128C1515.96 731.128 1521 726.091 1521 719.878C1521 713.665 1515.96 708.628 1509.75 708.628C1503.54 708.628 1498.5 713.665 1498.5 719.878C1498.5 726.091 1503.54 731.128 1509.75 731.128Z" fill="#B4BDDD" fill-opacity="0.07"/>
<path d="M1577.25 731.128C1583.46 731.128 1588.5 726.091 1588.5 719.878C1588.5 713.665 1583.46 708.628 1577.25 708.628C1571.04 708.628 1566 713.665 1566 719.878C1566 726.091 1571.04 731.128 1577.25 731.128Z" fill="#B4BDDD" fill-opacity="0.07"/>
<path d="M1644.75 731.128C1650.96 731.128 1656 726.091 1656 719.878C1656 713.665 1650.96 708.628 1644.75 708.628C1638.54 708.628 1633.5 713.665 1633.5 719.878C1633.5 726.091 1638.54 731.128 1644.75 731.128Z" fill="#B4BDDD" fill-opacity="0.07"/>
<path d="M1307.25 783.628C1313.46 783.628 1318.5 778.591 1318.5 772.378C1318.5 766.165 1313.46 761.128 1307.25 761.128C1301.04 761.128 1296 766.165 1296 772.378C1296 778.591 1301.04 783.628 1307.25 783.628Z" fill="#B4BDDD" fill-opacity="0.07"/>
<path d="M1374.75 783.628C1380.96 783.628 1386 778.591 1386 772.378C1386 766.165 1380.96 761.128 1374.75 761.128C1368.54 761.128 1363.5 766.165 1363.5 772.378C1363.5 778.591 1368.54 783.628 1374.75 783.628Z" fill="#B4BDDD" fill-opacity="0.07"/>
<path d="M1442.25 783.628C1448.46 783.628 1453.5 778.591 1453.5 772.378C1453.5 766.165 1448.46 761.128 1442.25 761.128C1436.04 761.128 1431 766.165 1431 772.378C1431 778.591 1436.04 783.628 1442.25 783.628Z" fill="#B4BDDD" fill-opacity="0.07"/>
<path d="M1509.75 783.628C1515.96 783.628 1521 778.591 1521 772.378C1521 766.165 1515.96 761.128 1509.75 761.128C1503.54 761.128 1498.5 766.165 1498.5 772.378C1498.5 778.591 1503.54 783.628 1509.75 783.628Z" fill="#B4BDDD" fill-opacity="0.07"/>
<path d="M1577.25 783.628C1583.46 783.628 1588.5 778.591 1588.5 772.378C1588.5 766.165 1583.46 761.128 1577.25 761.128C1571.04 761.128 1566 766.165 1566 772.378C1566 778.591 1571.04 783.628 1577.25 783.628Z" fill="#B4BDDD" fill-opacity="0.07"/>
<path d="M1644.75 783.628C1650.96 783.628 1656 778.591 1656 772.378C1656 766.165 1650.96 761.128 1644.75 761.128C1638.54 761.128 1633.5 766.165 1633.5 772.378C1633.5 778.591 1638.54 783.628 1644.75 783.628Z" fill="#B4BDDD" fill-opacity="0.07"/>
<path d="M1307.25 836.128C1313.46 836.128 1318.5 831.091 1318.5 824.878C1318.5 818.665 1313.46 813.628 1307.25 813.628C1301.04 813.628 1296 818.665 1296 824.878C1296 831.091 1301.04 836.128 1307.25 836.128Z" fill="#B4BDDD" fill-opacity="0.07"/>
<path d="M1374.75 836.128C1380.96 836.128 1386 831.091 1386 824.878C1386 818.665 1380.96 813.628 1374.75 813.628C1368.54 813.628 1363.5 818.665 1363.5 824.878C1363.5 831.091 1368.54 836.128 1374.75 836.128Z" fill="#B4BDDD" fill-opacity="0.07"/>
<path d="M1442.25 836.128C1448.46 836.128 1453.5 831.091 1453.5 824.878C1453.5 818.665 1448.46 813.628 1442.25 813.628C1436.04 813.628 1431 818.665 1431 824.878C1431 831.091 1436.04 836.128 1442.25 836.128Z" fill="#B4BDDD" fill-opacity="0.07"/>
<path d="M1509.75 836.128C1515.96 836.128 1521 831.091 1521 824.878C1521 818.665 1515.96 813.628 1509.75 813.628C1503.54 813.628 1498.5 818.665 1498.5 824.878C1498.5 831.091 1503.54 836.128 1509.75 836.128Z" fill="#B4BDDD" fill-opacity="0.07"/>
<path d="M1577.25 836.128C1583.46 836.128 1588.5 831.091 1588.5 824.878C1588.5 818.665 1583.46 813.628 1577.25 813.628C1571.04 813.628 1566 818.665 1566 824.878C1566 831.091 1571.04 836.128 1577.25 836.128Z" fill="#B4BDDD" fill-opacity="0.07"/>
<path d="M1644.75 836.128C1650.96 836.128 1656 831.091 1656 824.878C1656 818.665 1650.96 813.628 1644.75 813.628C1638.54 813.628 1633.5 818.665 1633.5 824.878C1633.5 831.091 1638.54 836.128 1644.75 836.128Z" fill="#B4BDDD" fill-opacity="0.07"/>
<path d="M530.25 839.128C536.463 839.128 541.5 834.091 541.5 827.878C541.5 821.665 536.463 816.628 530.25 816.628C524.037 816.628 519 821.665 519 827.878C519 834.091 524.037 839.128 530.25 839.128Z" fill="#B4BDDD" fill-opacity="0.07"/>
<path d="M597.75 839.128C603.963 839.128 609 834.091 609 827.878C609 821.665 603.963 816.628 597.75 816.628C591.537 816.628 586.5 821.665 586.5 827.878C586.5 834.091 591.537 839.128 597.75 839.128Z" fill="#B4BDDD" fill-opacity="0.07"/>
<path d="M665.25 839.128C671.463 839.128 676.5 834.091 676.5 827.878C676.5 821.665 671.463 816.628 665.25 816.628C659.037 816.628 654 821.665 654 827.878C654 834.091 659.037 839.128 665.25 839.128Z" fill="#B4BDDD" fill-opacity="0.07"/>
<path d="M732.75 839.128C738.963 839.128 744 834.091 744 827.878C744 821.665 738.963 816.628 732.75 816.628C726.537 816.628 721.5 821.665 721.5 827.878C721.5 834.091 726.537 839.128 732.75 839.128Z" fill="#B4BDDD" fill-opacity="0.07"/>
<path d="M800.25 839.128C806.463 839.128 811.5 834.091 811.5 827.878C811.5 821.665 806.463 816.628 800.25 816.628C794.037 816.628 789 821.665 789 827.878C789 834.091 794.037 839.128 800.25 839.128Z" fill="#B4BDDD" fill-opacity="0.07"/>
<path d="M867.75 839.128C873.963 839.128 879 834.091 879 827.878C879 821.665 873.963 816.628 867.75 816.628C861.537 816.628 856.5 821.665 856.5 827.878C856.5 834.091 861.537 839.128 867.75 839.128Z" fill="#B4BDDD" fill-opacity="0.07"/>
<path d="M530.25 891.628C536.463 891.628 541.5 886.591 541.5 880.378C541.5 874.165 536.463 869.128 530.25 869.128C524.037 869.128 519 874.165 519 880.378C519 886.591 524.037 891.628 530.25 891.628Z" fill="#B4BDDD" fill-opacity="0.07"/>
<path d="M597.75 891.628C603.963 891.628 609 886.591 609 880.378C609 874.165 603.963 869.128 597.75 869.128C591.537 869.128 586.5 874.165 586.5 880.378C586.5 886.591 591.537 891.628 597.75 891.628Z" fill="#B4BDDD" fill-opacity="0.07"/>
<path d="M665.25 891.628C671.463 891.628 676.5 886.591 676.5 880.378C676.5 874.165 671.463 869.128 665.25 869.128C659.037 869.128 654 874.165 654 880.378C654 886.591 659.037 891.628 665.25 891.628Z" fill="#B4BDDD" fill-opacity="0.07"/>
<path d="M732.75 891.628C738.963 891.628 744 886.591 744 880.378C744 874.165 738.963 869.128 732.75 869.128C726.537 869.128 721.5 874.165 721.5 880.378C721.5 886.591 726.537 891.628 732.75 891.628Z" fill="#B4BDDD" fill-opacity="0.07"/>
<path d="M800.25 891.628C806.463 891.628 811.5 886.591 811.5 880.378C811.5 874.165 806.463 869.128 800.25 869.128C794.037 869.128 789 874.165 789 880.378C789 886.591 794.037 891.628 800.25 891.628Z" fill="#B4BDDD" fill-opacity="0.07"/>
<path d="M867.75 891.628C873.963 891.628 879 886.591 879 880.378C879 874.165 873.963 869.128 867.75 869.128C861.537 869.128 856.5 874.165 856.5 880.378C856.5 886.591 861.537 891.628 867.75 891.628Z" fill="#B4BDDD" fill-opacity="0.07"/>
<path d="M530.25 944.128C536.463 944.128 541.5 939.091 541.5 932.878C541.5 926.665 536.463 921.628 530.25 921.628C524.037 921.628 519 926.665 519 932.878C519 939.091 524.037 944.128 530.25 944.128Z" fill="#B4BDDD" fill-opacity="0.07"/>
<path d="M597.75 944.128C603.963 944.128 609 939.091 609 932.878C609 926.665 603.963 921.628 597.75 921.628C591.537 921.628 586.5 926.665 586.5 932.878C586.5 939.091 591.537 944.128 597.75 944.128Z" fill="#B4BDDD" fill-opacity="0.07"/>
<path d="M665.25 944.128C671.463 944.128 676.5 939.091 676.5 932.878C676.5 926.665 671.463 921.628 665.25 921.628C659.037 921.628 654 926.665 654 932.878C654 939.091 659.037 944.128 665.25 944.128Z" fill="#B4BDDD" fill-opacity="0.07"/>
<path d="M732.75 944.128C738.963 944.128 744 939.091 744 932.878C744 926.665 738.963 921.628 732.75 921.628C726.537 921.628 721.5 926.665 721.5 932.878C721.5 939.091 726.537 944.128 732.75 944.128Z" fill="#B4BDDD" fill-opacity="0.07"/>
<path d="M800.25 944.128C806.463 944.128 811.5 939.091 811.5 932.878C811.5 926.665 806.463 921.628 800.25 921.628C794.037 921.628 789 926.665 789 932.878C789 939.091 794.037 944.128 800.25 944.128Z" fill="#B4BDDD" fill-opacity="0.07"/>
<path d="M867.75 944.128C873.963 944.128 879 939.091 879 932.878C879 926.665 873.963 921.628 867.75 921.628C861.537 921.628 856.5 926.665 856.5 932.878C856.5 939.091 861.537 944.128 867.75 944.128Z" fill="#B4BDDD" fill-opacity="0.07"/>
<path d="M530.25 996.628C536.463 996.628 541.5 991.591 541.5 985.378C541.5 979.165 536.463 974.128 530.25 974.128C524.037 974.128 519 979.165 519 985.378C519 991.591 524.037 996.628 530.25 996.628Z" fill="#B4BDDD" fill-opacity="0.07"/>
<path d="M597.75 996.628C603.963 996.628 609 991.591 609 985.378C609 979.165 603.963 974.128 597.75 974.128C591.537 974.128 586.5 979.165 586.5 985.378C586.5 991.591 591.537 996.628 597.75 996.628Z" fill="#B4BDDD" fill-opacity="0.07"/>
<path d="M665.25 996.628C671.463 996.628 676.5 991.591 676.5 985.378C676.5 979.165 671.463 974.128 665.25 974.128C659.037 974.128 654 979.165 654 985.378C654 991.591 659.037 996.628 665.25 996.628Z" fill="#B4BDDD" fill-opacity="0.07"/>
<path d="M732.75 996.628C738.963 996.628 744 991.591 744 985.378C744 979.165 738.963 974.128 732.75 974.128C726.537 974.128 721.5 979.165 721.5 985.378C721.5 991.591 726.537 996.628 732.75 996.628Z" fill="#B4BDDD" fill-opacity="0.07"/>
<path d="M800.25 996.628C806.463 996.628 811.5 991.591 811.5 985.378C811.5 979.165 806.463 974.128 800.25 974.128C794.037 974.128 789 979.165 789 985.378C789 991.591 794.037 996.628 800.25 996.628Z" fill="#B4BDDD" fill-opacity="0.07"/>
<path d="M867.75 996.628C873.963 996.628 879 991.591 879 985.378C879 979.165 873.963 974.128 867.75 974.128C861.537 974.128 856.5 979.165 856.5 985.378C856.5 991.591 861.537 996.628 867.75 996.628Z" fill="#B4BDDD" fill-opacity="0.07"/>
<path d="M530.25 1049.13C536.463 1049.13 541.5 1044.09 541.5 1037.88C541.5 1031.67 536.463 1026.63 530.25 1026.63C524.037 1026.63 519 1031.67 519 1037.88C519 1044.09 524.037 1049.13 530.25 1049.13Z" fill="#B4BDDD" fill-opacity="0.07"/>
<path d="M597.75 1049.13C603.963 1049.13 609 1044.09 609 1037.88C609 1031.67 603.963 1026.63 597.75 1026.63C591.537 1026.63 586.5 1031.67 586.5 1037.88C586.5 1044.09 591.537 1049.13 597.75 1049.13Z" fill="#B4BDDD" fill-opacity="0.07"/>
<path d="M665.25 1049.13C671.463 1049.13 676.5 1044.09 676.5 1037.88C676.5 1031.67 671.463 1026.63 665.25 1026.63C659.037 1026.63 654 1031.67 654 1037.88C654 1044.09 659.037 1049.13 665.25 1049.13Z" fill="#B4BDDD" fill-opacity="0.07"/>
<path d="M732.75 1049.13C738.963 1049.13 744 1044.09 744 1037.88C744 1031.67 738.963 1026.63 732.75 1026.63C726.537 1026.63 721.5 1031.67 721.5 1037.88C721.5 1044.09 726.537 1049.13 732.75 1049.13Z" fill="#B4BDDD" fill-opacity="0.07"/>
<path d="M800.25 1049.13C806.463 1049.13 811.5 1044.09 811.5 1037.88C811.5 1031.67 806.463 1026.63 800.25 1026.63C794.037 1026.63 789 1031.67 789 1037.88C789 1044.09 794.037 1049.13 800.25 1049.13Z" fill="#B4BDDD" fill-opacity="0.07"/>
<path d="M867.75 1049.13C873.963 1049.13 879 1044.09 879 1037.88C879 1031.67 873.963 1026.63 867.75 1026.63C861.537 1026.63 856.5 1031.67 856.5 1037.88C856.5 1044.09 861.537 1049.13 867.75 1049.13Z" fill="#B4BDDD" fill-opacity="0.07"/>
<path d="M210.5 247.628C225.5 129.128 164.5 24.6279 96.5 -22.3721L-206 29.1279V1104.13C-117.167 1090.63 126.67 910.68 96 752.628C34 433.128 193.359 383.04 210.5 247.628Z" fill="#B4BDDD" fill-opacity="0.07"/>
<path d="M254.5 255.628C269.5 137.128 208.5 32.6279 140.5 -14.3721L-162 37.1279V1112.13C-73.1667 1098.63 170.67 918.68 140 760.628C78 441.128 237.359 391.04 254.5 255.628Z" stroke="#B4BDDD" stroke-opacity="0.07" stroke-width="10"/>
<path d="M-65.5 548.628C11.5437 548.628 74 486.172 74 409.128C74 332.084 11.5437 269.628 -65.5 269.628C-142.544 269.628 -205 332.084 -205 409.128C-205 486.172 -142.544 548.628 -65.5 548.628Z" fill="#262261"/>
<path d="M1739.5 347.128C1539.5 264.128 1602.67 101.628 1565 89.6279L2092 12.6279C2140.5 312.295 2111.5 827.628 1977 804.628C1642.51 747.43 1906.05 416.247 1739.5 347.128Z" fill="#B4BDDD" fill-opacity="0.07"/>
<path d="M1685.49 379.321C1461.43 286.348 1532.2 104.322 1490 90.8802L2080.39 4.62793C2134.72 340.302 2102.23 917.558 1951.55 891.794C1576.84 827.723 1872.07 456.746 1685.49 379.321Z" stroke="#B4BDDD" stroke-opacity="0.07" stroke-width="10"/>
<path d="M1782 309.628C1838.89 309.628 1885 263.513 1885 206.628C1885 149.743 1838.89 103.628 1782 103.628C1725.11 103.628 1679 149.743 1679 206.628C1679 263.513 1725.11 309.628 1782 309.628Z" fill="#262261"/>
<path d="M1963 732.628C2019.89 732.628 2066 686.513 2066 629.628C2066 572.743 2019.89 526.628 1963 526.628C1906.11 526.628 1860 572.743 1860 629.628C1860 686.513 1906.11 732.628 1963 732.628Z" fill="#262261"/>
<path d="M1952 1393.13C2040.64 1393.13 2112.5 1321.27 2112.5 1232.63C2112.5 1143.99 2040.64 1072.13 1952 1072.13C1863.36 1072.13 1791.5 1143.99 1791.5 1232.63C1791.5 1321.27 1863.36 1393.13 1952 1393.13Z" stroke="#B4BDDD" stroke-opacity="0.07" stroke-width="15"/>
</g>
</g>
<defs>
<filter id="filter0_i_343:7" x="0" y="0.62793" width="1926" height="1473" filterUnits="userSpaceOnUse" color-interpolation-filters="sRGB">
<feFlood flood-opacity="0" result="BackgroundImageFix"/>
<feBlend mode="normal" in="SourceGraphic" in2="BackgroundImageFix" result="shape"/>
<feColorMatrix in="SourceAlpha" type="matrix" values="0 0 0 0 0 0 0 0 0 0 0 0 0 0 0 0 0 0 127 0" result="hardAlpha"/>
<feOffset dy="10"/>
<feGaussianBlur stdDeviation="5"/>
<feComposite in2="hardAlpha" operator="arithmetic" k2="-1" k3="1"/>
<feColorMatrix type="matrix" values="0 0 0 0 0 0 0 0 0 0 0 0 0 0 0 0 0 0 0.25 0"/>
<feBlend mode="normal" in2="shape" result="effect1_innerShadow_343:7"/>
</filter>
</defs>
</svg>
